# This file uses centimeters as units for non-parametric coordinates.

mtllib Button.mtl
g default
v -0.500000 -4.771029 -1.976222
v -0.500000 -3.651588 -3.651585
v -0.500000 -1.976227 -4.771027
v -0.500000 -0.000003 -5.164123
v -0.500000 1.976222 -4.771029
v -0.500000 3.651585 -3.651588
v -0.500000 4.771027 -1.976226
v -0.500000 5.164124 -0.000002
v -0.500000 4.771029 1.976223
v -0.500000 3.651588 3.651586
v -0.500000 1.976225 4.771028
v -0.500000 0.000001 5.164124
v -0.500000 -1.976224 4.771028
v -0.500000 -3.651586 3.651587
v -0.500000 -4.771028 1.976225
v -0.500000 -5.164124 0.000000
v 0.500000 -4.771029 -1.976222
v 0.500000 -3.651588 -3.651585
v 0.500000 -1.976227 -4.771027
v 0.500000 -0.000003 -5.164123
v 0.500000 1.976222 -4.771029
v 0.500000 3.651585 -3.651588
v 0.500000 4.771027 -1.976226
v 0.500000 5.164124 -0.000002
v 0.500000 4.771029 1.976223
v 0.500000 3.651588 3.651586
v 0.500000 1.976225 4.771028
v 0.500000 0.000001 5.164124
v 0.500000 -1.976224 4.771028
v 0.500000 -3.651586 3.651587
v 0.500000 -4.771028 1.976225
v 0.500000 -5.164124 0.000000
v -0.500000 -0.000000 0.000000
v 0.500000 0.000000 0.000000
v 0.500000 -0.988113 -2.385513
v 0.500000 -1.825794 -1.825792
v 0.500000 -2.385514 -0.988111
v 0.500000 -2.582062 0.000000
v 0.500000 -2.385514 0.988112
v 0.500000 -1.825793 1.825794
v 0.500000 -0.988112 2.385514
v 0.500000 0.000000 2.582062
v 0.500000 0.988113 2.385514
v 0.500000 1.825794 1.825793
v 0.500000 2.385514 0.988111
v 0.500000 2.582062 -0.000001
v 0.500000 2.385514 -0.988113
v 0.500000 1.825793 -1.825794
v 0.500000 0.988111 -2.385514
v 0.500000 -0.000001 -2.582062
v -0.500000 1.825793 -1.825794
v -0.500000 0.988111 -2.385514
v -0.500000 -0.000001 -2.582062
v -0.500000 -0.988113 -2.385513
v -0.500000 -1.825794 -1.825792
v -0.500000 -2.385514 -0.988111
v -0.500000 -2.582062 0.000000
v -0.500000 -2.385514 0.988112
v -0.500000 -1.825793 1.825794
v -0.500000 -0.988112 2.385514
v -0.500000 0.000000 2.582062
v -0.500000 0.988113 2.385514
v -0.500000 1.825794 1.825793
v -0.500000 2.385514 0.988111
v -0.500000 2.582062 -0.000001
v -0.500000 2.385514 -0.988113
v -1.478953 2.738689 -2.738691
v -1.478953 1.482167 -3.578272
v -1.478953 -0.000002 -3.873092
v -1.478953 -1.482170 -3.578270
v -1.478953 -2.738691 -2.738688
v -1.478953 -3.578272 -1.482166
v -1.478953 -3.873093 0.000000
v -1.478953 -3.578271 1.482168
v -1.478953 -2.738690 2.738690
v -1.478953 -1.482168 3.578271
v -1.478953 0.000001 3.873093
v -1.478953 1.482169 3.578271
v -1.478953 2.738691 2.738689
v -1.478953 3.578271 1.482167
v -1.478953 3.873093 -0.000001
v -1.478953 3.578270 -1.482170
v 1.478953 -3.578272 -1.482166
v 1.478953 -2.738691 -2.738688
v 1.478953 -1.482170 -3.578270
v 1.478953 -0.000002 -3.873092
v 1.478953 1.482167 -3.578272
v 1.478953 2.738689 -2.738691
v 1.478953 3.578270 -1.482170
v 1.478953 3.873093 -0.000001
v 1.478953 3.578271 1.482167
v 1.478953 2.738691 2.738689
v 1.478953 1.482169 3.578271
v 1.478953 0.000001 3.873093
v 1.478953 -1.482168 3.578271
v 1.478953 -2.738690 2.738690
v 1.478953 -3.578271 1.482168
v 1.478953 -3.873093 0.000000
v 1.478953 -2.981893 -1.235139
v 1.478953 -3.227577 0.000000
v 1.478953 -2.981893 1.235140
v 1.478953 -2.282241 2.282242
v 1.478953 -1.235140 2.981893
v 1.478953 0.000000 3.227577
v 1.478953 1.235141 2.981892
v 1.478953 2.282242 2.282241
v 1.478953 2.981893 1.235139
v 1.478953 3.227577 -0.000001
v 1.478953 2.981892 -1.235142
v 1.478953 2.282241 -2.282243
v 1.478953 1.235139 -2.981893
v 1.478953 -0.000002 -3.227577
v 1.478953 -1.235142 -2.981892
v 1.478953 -2.282243 -2.282240
v -1.478954 2.282241 -2.282243
v -1.478954 2.981892 -1.235142
v -1.478954 3.227577 -0.000001
v -1.478954 2.981893 1.235139
v -1.478954 2.282242 2.282241
v -1.478954 1.235141 2.981892
v -1.478954 0.000000 3.227577
v -1.478954 -1.235140 2.981893
v -1.478954 -2.282241 2.282242
v -1.478954 -2.981893 1.235140
v -1.478954 -3.227577 0.000000
v -1.478954 -2.981893 -1.235139
v -1.478954 -2.282243 -2.282240
v -1.478954 -1.235142 -2.981892
v -1.478954 -0.000002 -3.227577
v -1.478954 1.235139 -2.981893
v 0.000000 -4.771029 -1.976222
v 0.000000 -3.651588 -3.651585
v 0.000000 -1.976227 -4.771027
v 0.000000 -0.000003 -5.164123
v -0.000000 1.976222 -4.771029
v -0.000000 3.651585 -3.651588
v -0.000000 4.771027 -1.976226
v -0.000000 5.164124 -0.000002
v -0.000000 4.771029 1.976223
v -0.000000 3.651588 3.651586
v -0.000000 1.976225 4.771028
v -0.000000 0.000001 5.164124
v 0.000000 -1.976224 4.771028
v 0.000000 -3.651586 3.651587
v 0.000000 -4.771028 1.976225
v 0.000000 -5.164124 0.000000
vt 0.644356 0.096456
vt 0.610485 0.045765
vt 0.559794 0.011894
vt 0.500000 0.000000
vt 0.440206 0.011894
vt 0.389515 0.045765
vt 0.355644 0.096456
vt 0.343750 0.156250
vt 0.355644 0.216044
vt 0.389515 0.266735
vt 0.440206 0.300606
vt 0.500000 0.312500
vt 0.559794 0.300606
vt 0.610485 0.266735
vt 0.644356 0.216044
vt 0.656250 0.156250
vt 0.375000 0.312500
vt 0.390625 0.312500
vt 0.406250 0.312500
vt 0.421875 0.312500
vt 0.437500 0.312500
vt 0.453125 0.312500
vt 0.468750 0.312500
vt 0.484375 0.312500
vt 0.500000 0.312500
vt 0.515625 0.312500
vt 0.531250 0.312500
vt 0.546875 0.312500
vt 0.562500 0.312500
vt 0.578125 0.312500
vt 0.593750 0.312500
vt 0.609375 0.312500
vt 0.625000 0.312500
vt 0.375000 0.688440
vt 0.390625 0.688440
vt 0.406250 0.688440
vt 0.421875 0.688440
vt 0.437500 0.688440
vt 0.453125 0.688440
vt 0.468750 0.688440
vt 0.484375 0.688440
vt 0.500000 0.688440
vt 0.515625 0.688440
vt 0.531250 0.688440
vt 0.546875 0.688440
vt 0.562500 0.688440
vt 0.578125 0.688440
vt 0.593750 0.688440
vt 0.609375 0.688440
vt 0.625000 0.688440
vt 0.644356 0.783956
vt 0.610485 0.733265
vt 0.559794 0.699394
vt 0.500000 0.687500
vt 0.440206 0.699394
vt 0.389515 0.733265
vt 0.355644 0.783956
vt 0.343750 0.843750
vt 0.355644 0.903544
vt 0.389515 0.954235
vt 0.440206 0.988106
vt 0.500000 1.000000
vt 0.559794 0.988106
vt 0.610485 0.954235
vt 0.644356 0.903544
vt 0.656250 0.843750
vt 0.500000 0.150000
vt 0.500000 0.837500
vt 0.529897 0.912803
vt 0.555243 0.895868
vt 0.572178 0.870522
vt 0.578125 0.840625
vt 0.572178 0.810728
vt 0.555243 0.785382
vt 0.529897 0.768447
vt 0.500000 0.762500
vt 0.470103 0.768447
vt 0.444757 0.785382
vt 0.427822 0.810728
vt 0.421875 0.840625
vt 0.427822 0.870522
vt 0.444757 0.895868
vt 0.470103 0.912803
vt 0.500000 0.918750
vt 0.444757 0.097882
vt 0.470103 0.080947
vt 0.500000 0.075000
vt 0.529897 0.080947
vt 0.555243 0.097882
vt 0.572178 0.123228
vt 0.578125 0.153125
vt 0.572178 0.183022
vt 0.555243 0.208368
vt 0.529897 0.225303
vt 0.500000 0.231250
vt 0.470103 0.225303
vt 0.444757 0.208368
vt 0.427822 0.183022
vt 0.421875 0.153125
vt 0.427822 0.123228
vt 0.417136 0.071823
vt 0.455154 0.046420
vt 0.500000 0.037500
vt 0.544846 0.046420
vt 0.582864 0.071823
vt 0.608267 0.109842
vt 0.617188 0.154687
vt 0.608267 0.199533
vt 0.582864 0.237552
vt 0.544846 0.262955
vt 0.500000 0.271875
vt 0.455154 0.262955
vt 0.417136 0.237552
vt 0.391733 0.199533
vt 0.382813 0.154687
vt 0.391733 0.109842
vt 0.608267 0.887033
vt 0.582864 0.925052
vt 0.544846 0.950455
vt 0.500000 0.959375
vt 0.455154 0.950455
vt 0.417136 0.925052
vt 0.391733 0.887033
vt 0.382813 0.842187
vt 0.391733 0.797342
vt 0.417136 0.759323
vt 0.455154 0.733920
vt 0.500000 0.725000
vt 0.544846 0.733920
vt 0.582864 0.759323
vt 0.608267 0.797342
vt 0.617188 0.842188
vt 0.590223 0.878778
vt 0.597656 0.841406
vt 0.590223 0.804035
vt 0.569053 0.772353
vt 0.537372 0.751184
vt 0.500000 0.743750
vt 0.462629 0.751184
vt 0.430947 0.772353
vt 0.409777 0.804035
vt 0.402344 0.841406
vt 0.409777 0.878778
vt 0.430947 0.910460
vt 0.462629 0.931629
vt 0.500000 0.939062
vt 0.537371 0.931629
vt 0.569053 0.910460
vt 0.430947 0.084853
vt 0.409777 0.116535
vt 0.402344 0.153906
vt 0.409777 0.191278
vt 0.430947 0.222960
vt 0.462629 0.244129
vt 0.500000 0.251563
vt 0.537371 0.244129
vt 0.569053 0.222960
vt 0.590223 0.191278
vt 0.597656 0.153906
vt 0.590223 0.116535
vt 0.569053 0.084853
vt 0.537372 0.063684
vt 0.500000 0.056250
vt 0.462629 0.063684
vt 0.625000 0.500470
vt 0.375000 0.500470
vt 0.390625 0.500470
vt 0.406250 0.500470
vt 0.421875 0.500470
vt 0.437500 0.500470
vt 0.453125 0.500470
vt 0.468750 0.500470
vt 0.484375 0.500470
vt 0.500000 0.500470
vt 0.515625 0.500470
vt 0.531250 0.500470
vt 0.546875 0.500470
vt 0.562500 0.500470
vt 0.578125 0.500470
vt 0.593750 0.500470
vt 0.609375 0.500470
vn 0.000000 -0.923880 -0.382683
vn 0.000000 -0.707107 -0.707106
vn 0.000000 -0.707107 -0.707106
vn 0.000000 -0.923880 -0.382683
vn 0.000000 -0.382684 -0.923879
vn 0.000000 -0.382684 -0.923879
vn 0.000000 -0.000001 -1.000000
vn 0.000000 -0.000001 -1.000000
vn -0.000000 0.382683 -0.923880
vn -0.000000 0.382683 -0.923880
vn -0.000000 0.707106 -0.707107
vn -0.000000 0.707106 -0.707107
vn -0.000000 0.923879 -0.382684
vn -0.000000 0.923879 -0.382684
vn -0.000000 1.000000 -0.000000
vn -0.000000 1.000000 -0.000000
vn -0.000000 0.923880 0.382683
vn -0.000000 0.923880 0.382683
vn -0.000000 0.707107 0.707107
vn -0.000000 0.707107 0.707107
vn -0.000000 0.382684 0.923880
vn -0.000000 0.382684 0.923880
vn -0.000000 0.000000 1.000000
vn -0.000000 0.000000 1.000000
vn 0.000000 -0.382683 0.923880
vn 0.000000 -0.382683 0.923880
vn 0.000000 -0.707107 0.707107
vn 0.000000 -0.707107 0.707107
vn 0.000000 -0.923880 0.382684
vn 0.000000 -0.923880 0.382684
vn 0.000000 -1.000000 0.000000
vn 0.000000 -1.000000 0.000000
vn -0.850843 0.371529 0.371528
vn -0.850843 0.485425 0.201070
vn -1.000000 -0.000000 -0.000000
vn -0.850843 0.201070 0.485425
vn -0.850843 0.000000 0.525420
vn -0.850843 -0.201069 0.485425
vn -0.850843 -0.371528 0.371528
vn -0.850843 -0.485425 0.201070
vn -0.850843 -0.525420 0.000000
vn -0.850843 -0.485425 -0.201070
vn -0.850843 -0.371528 -0.371528
vn -0.850843 -0.201070 -0.485425
vn -0.850843 -0.000000 -0.525420
vn -0.850843 0.201070 -0.485425
vn -0.850843 0.371528 -0.371528
vn -0.850843 0.485425 -0.201070
vn -0.850843 0.525420 -0.000000
vn 0.865912 -0.462121 -0.191417
vn 0.865912 -0.353692 -0.353692
vn 0.852766 0.369317 0.369317
vn 0.852766 0.482536 0.199873
vn 0.865912 -0.191417 -0.462121
vn 0.852766 0.199873 0.482536
vn 0.865912 -0.000000 -0.500196
vn 0.852766 0.000000 0.522293
vn 0.865912 0.191416 -0.462121
vn 0.852766 -0.199873 0.482536
vn 0.865912 0.353692 -0.353692
vn 0.852766 -0.369317 0.369317
vn 0.865912 0.462121 -0.191417
vn 0.852766 -0.482536 0.199873
vn 0.865912 0.500196 -0.000000
vn 0.852766 -0.522293 0.000000
vn 0.865912 0.462121 0.191417
vn 0.852766 -0.482536 -0.199873
vn 0.865912 0.353692 0.353692
vn 0.852766 -0.369317 -0.369317
vn 0.865912 0.191417 0.462121
vn 0.852766 -0.199873 -0.482536
vn 0.865912 -0.000000 0.500196
vn 0.852766 -0.000000 -0.522293
vn 0.865912 -0.191417 0.462121
vn 0.852766 0.199873 -0.482536
vn 0.865912 -0.353692 0.353692
vn 0.852766 0.369317 -0.369317
vn 0.865912 -0.462121 0.191417
vn 0.852766 0.482536 -0.199873
vn 0.865912 -0.500196 0.000000
vn 0.852766 0.522293 -0.000000
vn 0.850843 0.371528 0.371528
vn 0.850843 0.201070 0.485425
vn 1.000000 0.000000 0.000000
vn 0.850843 0.485425 0.201069
vn 0.850843 0.525420 -0.000000
vn 0.850843 0.485425 -0.201070
vn 0.850843 0.371528 -0.371528
vn 0.850843 0.201070 -0.485425
vn 0.850843 -0.000000 -0.525420
vn 0.850843 -0.201070 -0.485425
vn 0.850843 -0.371528 -0.371528
vn 0.850843 -0.485425 -0.201069
vn 0.850843 -0.525420 0.000000
vn 0.850843 -0.485425 0.201070
vn 0.850843 -0.371528 0.371528
vn 0.850843 -0.201069 0.485425
vn 0.850843 0.000000 0.525420
vn -0.865912 0.353692 -0.353692
vn -0.865912 0.191417 -0.462121
vn -0.852766 -0.199872 0.482536
vn -0.852766 -0.369317 0.369317
vn -0.865912 -0.000000 -0.500196
vn -0.852766 0.000000 0.522293
vn -0.865912 -0.191417 -0.462121
vn -0.852766 0.199873 0.482536
vn -0.865912 -0.353692 -0.353692
vn -0.852766 0.369317 0.369317
vn -0.865912 -0.462121 -0.191417
vn -0.852766 0.482536 0.199873
vn -0.865912 -0.500196 0.000000
vn -0.852766 0.522293 -0.000000
vn -0.865912 -0.462121 0.191417
vn -0.852766 0.482535 -0.199873
vn -0.865912 -0.353692 0.353692
vn -0.852766 0.369317 -0.369317
vn -0.865912 -0.191417 0.462121
vn -0.852766 0.199873 -0.482536
vn -0.865912 -0.000000 0.500196
vn -0.852766 -0.000000 -0.522293
vn -0.865912 0.191417 0.462121
vn -0.852766 -0.199873 -0.482536
vn -0.865912 0.353692 0.353692
vn -0.852766 -0.369317 -0.369317
vn -0.865912 0.462121 0.191417
vn -0.852766 -0.482536 -0.199873
vn -0.865912 0.500196 -0.000000
vn -0.852766 -0.522293 0.000000
vn -0.865912 0.462121 -0.191417
vn -0.852766 -0.482535 0.199873
vn -0.796825 0.427241 -0.427241
vn -0.796825 0.231221 -0.558218
vn -0.796825 -0.000000 -0.604210
vn -0.796825 -0.231222 -0.558218
vn -0.796825 -0.427242 -0.427241
vn -0.796825 -0.558218 -0.231221
vn -0.796825 -0.604210 0.000000
vn -0.796825 -0.558218 0.231221
vn -0.796825 -0.427241 0.427241
vn -0.796825 -0.231221 0.558218
vn -0.796825 -0.000000 0.604210
vn -0.796825 0.231221 0.558218
vn -0.796825 0.427241 0.427241
vn -0.796825 0.558218 0.231221
vn -0.796825 0.604210 -0.000000
vn -0.796825 0.558217 -0.231222
vn 0.796825 -0.558218 -0.231221
vn 0.796825 -0.427242 -0.427241
vn 0.796825 -0.231222 -0.558217
vn 0.796825 -0.000000 -0.604210
vn 0.796825 0.231221 -0.558218
vn 0.796825 0.427241 -0.427241
vn 0.796825 0.558218 -0.231222
vn 0.796825 0.604210 -0.000000
vn 0.796825 0.558218 0.231221
vn 0.796825 0.427241 0.427241
vn 0.796825 0.231221 0.558218
vn 0.796825 0.000000 0.604210
vn 0.796825 -0.231221 0.558218
vn 0.796825 -0.427241 0.427241
vn 0.796825 -0.558218 0.231221
vn 0.796825 -0.604210 0.000000
vn 0.000000 -0.923880 -0.382683
vn 0.000000 -0.707107 -0.707106
vn 0.000000 -0.382684 -0.923879
vn 0.000000 -0.000001 -1.000000
vn -0.000000 0.382683 -0.923880
vn -0.000000 0.707106 -0.707107
vn -0.000000 0.923879 -0.382684
vn -0.000000 1.000000 -0.000000
vn -0.000000 0.923880 0.382683
vn -0.000000 0.707107 0.707107
vn -0.000000 0.382684 0.923880
vn -0.000000 0.000000 1.000000
vn 0.000000 -0.382683 0.923880
vn 0.000000 -0.707107 0.707107
vn 0.000000 -0.923880 0.382684
vn 0.000000 -1.000000 0.000000
s 1
g pCylinder1
usemtl initialShadingGroup
f 131/166/1 132/167/2 18/35/3 17/34/4
f 132/167/2 133/168/5 19/36/6 18/35/3
f 133/168/5 134/169/7 20/37/8 19/36/6
f 134/169/7 135/170/9 21/38/10 20/37/8
f 135/170/9 136/171/11 22/39/12 21/38/10
f 136/171/11 137/172/13 23/40/14 22/39/12
f 137/172/13 138/173/15 24/41/16 23/40/14
f 138/173/15 139/174/17 25/42/18 24/41/16
f 139/174/17 140/175/19 26/43/20 25/42/18
f 140/175/19 141/176/21 27/44/22 26/43/20
f 141/176/21 142/177/23 28/45/24 27/44/22
f 142/177/23 143/178/25 29/46/26 28/45/24
f 143/178/25 144/179/27 30/47/28 29/46/26
f 144/179/27 145/180/29 31/48/30 30/47/28
f 145/180/29 146/181/31 32/49/32 31/48/30
f 146/181/31 131/165/1 17/50/4 32/49/32
s 2
f 55/89/33 56/90/34 33/67/35
f 54/88/36 55/89/33 33/67/35
f 53/87/37 54/88/36 33/67/35
f 52/86/38 53/87/37 33/67/35
f 51/85/39 52/86/38 33/67/35
f 66/100/40 51/85/39 33/67/35
f 65/99/41 66/100/40 33/67/35
f 64/98/42 65/99/41 33/67/35
f 63/97/43 64/98/42 33/67/35
f 62/96/44 63/97/43 33/67/35
f 61/95/45 62/96/44 33/67/35
f 60/94/46 61/95/45 33/67/35
f 59/93/47 60/94/46 33/67/35
f 58/92/48 59/93/47 33/67/35
f 57/91/49 58/92/48 33/67/35
f 56/90/34 57/91/49 33/67/35
s 3
f 83/117/50 84/118/51 114/148/52 99/133/53
f 84/118/51 85/119/54 113/147/55 114/148/52
f 85/119/54 86/120/56 112/146/57 113/147/55
f 86/120/56 87/121/58 111/145/59 112/146/57
f 87/121/58 88/122/60 110/144/61 111/145/59
f 88/122/60 89/123/62 109/143/63 110/144/61
f 89/123/62 90/124/64 108/142/65 109/143/63
f 90/124/64 91/125/66 107/141/67 108/142/65
f 91/125/66 92/126/68 106/140/69 107/141/67
f 92/126/68 93/127/70 105/139/71 106/140/69
f 93/127/70 94/128/72 104/138/73 105/139/71
f 94/128/72 95/129/74 103/137/75 104/138/73
f 95/129/74 96/130/76 102/136/77 103/137/75
f 96/130/76 97/131/78 101/135/79 102/136/77
f 97/131/78 98/132/80 100/134/81 101/135/79
f 98/132/80 83/117/50 99/133/53 100/134/81
f 36/70/82 35/69/83 34/68/84
f 37/71/85 36/70/82 34/68/84
f 38/72/86 37/71/85 34/68/84
f 39/73/87 38/72/86 34/68/84
f 40/74/88 39/73/87 34/68/84
f 41/75/89 40/74/88 34/68/84
f 42/76/90 41/75/89 34/68/84
f 43/77/91 42/76/90 34/68/84
f 44/78/92 43/77/91 34/68/84
f 45/79/93 44/78/92 34/68/84
f 46/80/94 45/79/93 34/68/84
f 47/81/95 46/80/94 34/68/84
f 48/82/96 47/81/95 34/68/84
f 49/83/97 48/82/96 34/68/84
f 50/84/98 49/83/97 34/68/84
f 35/69/83 50/84/98 34/68/84
s 2
f 67/101/99 68/102/100 130/164/101 115/149/102
f 68/102/100 69/103/103 129/163/104 130/164/101
f 69/103/103 70/104/105 128/162/106 129/163/104
f 70/104/105 71/105/107 127/161/108 128/162/106
f 71/105/107 72/106/109 126/160/110 127/161/108
f 72/106/109 73/107/111 125/159/112 126/160/110
f 73/107/111 74/108/113 124/158/114 125/159/112
f 74/108/113 75/109/115 123/157/116 124/158/114
f 75/109/115 76/110/117 122/156/118 123/157/116
f 76/110/117 77/111/119 121/155/120 122/156/118
f 77/111/119 78/112/121 120/154/122 121/155/120
f 78/112/121 79/113/123 119/153/124 120/154/122
f 79/113/123 80/114/125 118/152/126 119/153/124
f 80/114/125 81/115/127 117/151/128 118/152/126
f 81/115/127 82/116/129 116/150/130 117/151/128
f 82/116/129 67/101/99 115/149/102 116/150/130
f 6/6/131 5/5/132 68/102/100 67/101/99
f 5/5/132 4/4/133 69/103/103 68/102/100
f 4/4/133 3/3/134 70/104/105 69/103/103
f 3/3/134 2/2/135 71/105/107 70/104/105
f 2/2/135 1/1/136 72/106/109 71/105/107
f 1/1/136 16/16/137 73/107/111 72/106/109
f 16/16/137 15/15/138 74/108/113 73/107/111
f 15/15/138 14/14/139 75/109/115 74/108/113
f 14/14/139 13/13/140 76/110/117 75/109/115
f 13/13/140 12/12/141 77/111/119 76/110/117
f 12/12/141 11/11/142 78/112/121 77/111/119
f 11/11/142 10/10/143 79/113/123 78/112/121
f 10/10/143 9/9/144 80/114/125 79/113/123
f 9/9/144 8/8/145 81/115/127 80/114/125
f 8/8/145 7/7/146 82/116/129 81/115/127
f 7/7/146 6/6/131 67/101/99 82/116/129
s 3
f 17/65/147 18/64/148 84/118/51 83/117/50
f 18/64/148 19/63/149 85/119/54 84/118/51
f 19/63/149 20/62/150 86/120/56 85/119/54
f 20/62/150 21/61/151 87/121/58 86/120/56
f 21/61/151 22/60/152 88/122/60 87/121/58
f 22/60/152 23/59/153 89/123/62 88/122/60
f 23/59/153 24/58/154 90/124/64 89/123/62
f 24/58/154 25/57/155 91/125/66 90/124/64
f 25/57/155 26/56/156 92/126/68 91/125/66
f 26/56/156 27/55/157 93/127/70 92/126/68
f 27/55/157 28/54/158 94/128/72 93/127/70
f 28/54/158 29/53/159 95/129/74 94/128/72
f 29/53/159 30/52/160 96/130/76 95/129/74
f 30/52/160 31/51/161 97/131/78 96/130/76
f 31/51/161 32/66/162 98/132/80 97/131/78
f 32/66/162 17/65/147 83/117/50 98/132/80
f 100/134/81 99/133/53 37/71/85 38/72/86
f 101/135/79 100/134/81 38/72/86 39/73/87
f 102/136/77 101/135/79 39/73/87 40/74/88
f 103/137/75 102/136/77 40/74/88 41/75/89
f 104/138/73 103/137/75 41/75/89 42/76/90
f 105/139/71 104/138/73 42/76/90 43/77/91
f 106/140/69 105/139/71 43/77/91 44/78/92
f 107/141/67 106/140/69 44/78/92 45/79/93
f 108/142/65 107/141/67 45/79/93 46/80/94
f 109/143/63 108/142/65 46/80/94 47/81/95
f 110/144/61 109/143/63 47/81/95 48/82/96
f 111/145/59 110/144/61 48/82/96 49/83/97
f 112/146/57 111/145/59 49/83/97 50/84/98
f 113/147/55 112/146/57 50/84/98 35/69/83
f 114/148/52 113/147/55 35/69/83 36/70/82
f 99/133/53 114/148/52 36/70/82 37/71/85
s 2
f 116/150/130 115/149/102 51/85/39 66/100/40
f 117/151/128 116/150/130 66/100/40 65/99/41
f 118/152/126 117/151/128 65/99/41 64/98/42
f 119/153/124 118/152/126 64/98/42 63/97/43
f 120/154/122 119/153/124 63/97/43 62/96/44
f 121/155/120 120/154/122 62/96/44 61/95/45
f 122/156/118 121/155/120 61/95/45 60/94/46
f 123/157/116 122/156/118 60/94/46 59/93/47
f 124/158/114 123/157/116 59/93/47 58/92/48
f 125/159/112 124/158/114 58/92/48 57/91/49
f 126/160/110 125/159/112 57/91/49 56/90/34
f 127/161/108 126/160/110 56/90/34 55/89/33
f 128/162/106 127/161/108 55/89/33 54/88/36
f 129/163/104 128/162/106 54/88/36 53/87/37
f 130/164/101 129/163/104 53/87/37 52/86/38
f 115/149/102 130/164/101 52/86/38 51/85/39
s 1
f 1/17/163 2/18/164 132/167/2 131/166/1
f 2/18/164 3/19/165 133/168/5 132/167/2
f 3/19/165 4/20/166 134/169/7 133/168/5
f 4/20/166 5/21/167 135/170/9 134/169/7
f 5/21/167 6/22/168 136/171/11 135/170/9
f 6/22/168 7/23/169 137/172/13 136/171/11
f 7/23/169 8/24/170 138/173/15 137/172/13
f 8/24/170 9/25/171 139/174/17 138/173/15
f 9/25/171 10/26/172 140/175/19 139/174/17
f 10/26/172 11/27/173 141/176/21 140/175/19
f 11/27/173 12/28/174 142/177/23 141/176/21
f 12/28/174 13/29/175 143/178/25 142/177/23
f 13/29/175 14/30/176 144/179/27 143/178/25
f 14/30/176 15/31/177 145/180/29 144/179/27
f 15/31/177 16/32/178 146/181/31 145/180/29
f 16/32/178 1/33/163 131/165/1 146/181/31
