# This file uses centimeters as units for non-parametric coordinates.

mtllib Kill Pad.mtl
g default
v -2.084705 -0.279520 0.459929
v -1.495900 -0.279520 0.640183
v -0.997267 -0.279520 0.640183
v -0.498633 -0.279520 0.640183
v 0.000000 -0.279520 0.640183
v 0.498633 -0.279520 0.640183
v 0.997267 -0.279520 0.640183
v 1.495900 -0.279520 0.640183
v 2.084705 -0.279520 0.459929
v -1.933508 0.279520 0.301051
v -1.495900 0.279520 0.433408
v -0.997267 0.279520 0.288984
v -0.498633 0.279520 0.433408
v 0.000000 0.279520 0.288984
v 0.498633 0.279520 0.433408
v 0.997267 0.279520 0.288984
v 1.495900 0.279520 0.433408
v 1.933508 0.279520 0.301051
v -2.217299 0.279520 0.000000
v -1.495900 1.424668 0.000000
v -0.997267 0.452558 0.000000
v -0.498633 1.424668 0.000000
v 0.000000 0.452558 0.000000
v 0.498633 1.424668 0.000000
v 0.997267 0.452558 0.000000
v 1.495900 1.424668 0.000000
v 2.217299 0.279520 0.000000
v -1.933508 0.279520 -0.301051
v -1.495900 0.279520 -0.433408
v -0.997267 0.279520 -0.288984
v -0.498633 0.279520 -0.433408
v 0.000000 0.279520 -0.288984
v 0.498633 0.279520 -0.433408
v 0.997267 0.279520 -0.288984
v 1.495900 0.279520 -0.433408
v 1.933508 0.279520 -0.301051
v -2.084705 -0.279520 -0.459929
v -1.495900 -0.279520 -0.640183
v -0.997267 -0.279520 -0.640183
v -0.498633 -0.279520 -0.640183
v 0.000000 -0.279520 -0.640183
v 0.498633 -0.279520 -0.640183
v 0.997267 -0.279520 -0.640183
v 1.495900 -0.279520 -0.640183
v 2.084705 -0.279520 -0.459929
v -2.369714 -0.279520 0.000000
v -1.563529 -0.279520 0.000000
v -0.997267 -0.279520 0.000000
v -0.521176 -0.279520 0.000000
v 0.000000 -0.279520 0.000000
v 0.521176 -0.279520 0.000000
v 0.997267 -0.279520 0.000000
v 1.563529 -0.279520 0.000000
v 2.369714 -0.279520 0.000000
vt 0.375000 0.000000
vt 0.406250 0.000000
vt 0.437500 0.000000
vt 0.468750 0.000000
vt 0.500000 0.000000
vt 0.531250 0.000000
vt 0.562500 0.000000
vt 0.593750 0.000000
vt 0.625000 0.000000
vt 0.375000 0.250000
vt 0.406250 0.250000
vt 0.437500 0.250000
vt 0.468750 0.250000
vt 0.500000 0.250000
vt 0.531250 0.250000
vt 0.562500 0.250000
vt 0.593750 0.250000
vt 0.625000 0.250000
vt 0.375000 0.375000
vt 0.406250 0.375000
vt 0.437500 0.375000
vt 0.468750 0.375000
vt 0.500000 0.375000
vt 0.531250 0.375000
vt 0.562500 0.375000
vt 0.593750 0.375000
vt 0.625000 0.375000
vt 0.375000 0.500000
vt 0.406250 0.500000
vt 0.437500 0.500000
vt 0.468750 0.500000
vt 0.500000 0.500000
vt 0.531250 0.500000
vt 0.562500 0.500000
vt 0.593750 0.500000
vt 0.625000 0.500000
vt 0.375000 0.750000
vt 0.406250 0.750000
vt 0.437500 0.750000
vt 0.468750 0.750000
vt 0.500000 0.750000
vt 0.531250 0.750000
vt 0.562500 0.750000
vt 0.593750 0.750000
vt 0.625000 0.750000
vt 0.375000 0.875000
vt 0.406250 0.875000
vt 0.437500 0.875000
vt 0.468750 0.875000
vt 0.500000 0.875000
vt 0.531250 0.875000
vt 0.562500 0.875000
vt 0.593750 0.875000
vt 0.625000 0.875000
vt 0.375000 1.000000
vt 0.406250 1.000000
vt 0.437500 1.000000
vt 0.468750 1.000000
vt 0.500000 1.000000
vt 0.531250 1.000000
vt 0.562500 1.000000
vt 0.593750 1.000000
vt 0.625000 1.000000
vt 0.875000 0.000000
vt 0.750000 0.000000
vt 0.875000 0.250000
vt 0.750000 0.250000
vt 0.125000 0.000000
vt 0.250000 0.000000
vt 0.125000 0.250000
vt 0.250000 0.250000
vn -0.274802 0.332239 0.902275
vn -0.053500 0.402046 0.914055
vn -0.076200 0.395922 0.915117
vn -0.274802 0.332239 0.902275
vn 0.000000 0.446532 0.894768
vn 0.000000 0.446531 0.894768
vn 0.000000 0.446531 0.894768
vn 0.000000 0.446531 0.894768
vn 0.000000 0.446531 0.894768
vn 0.000000 0.446531 0.894768
vn 0.000000 0.446531 0.894768
vn 0.000000 0.446531 0.894768
vn 0.000000 0.446532 0.894768
vn 0.000000 0.446532 0.894768
vn 0.053500 0.402046 0.914055
vn 0.076200 0.395923 0.915117
vn 0.274802 0.332239 0.902275
vn 0.274802 0.332239 0.902275
vn -0.474449 0.388915 0.789711
vn -0.029324 0.459139 0.887880
vn -0.070922 0.997482 0.000000
vn -0.773374 0.633950 0.000000
vn 0.000000 0.480585 0.876948
vn 0.000000 1.000000 0.000000
vn 0.000000 0.480585 0.876948
vn 0.000000 1.000000 0.000000
vn 0.000000 0.480585 0.876948
vn 0.000000 1.000000 0.000000
vn 0.000000 0.480585 0.876948
vn 0.000000 1.000000 0.000000
vn 0.000000 0.480585 0.876948
vn 0.000000 1.000000 0.000000
vn 0.029324 0.459139 0.887880
vn 0.070922 0.997482 0.000000
vn 0.474449 0.388915 0.789711
vn 0.773374 0.633950 0.000000
vn -0.029324 0.459139 -0.887880
vn -0.474449 0.388915 -0.789711
vn 0.000000 0.480585 -0.876948
vn 0.000000 0.480585 -0.876948
vn 0.000000 0.480585 -0.876948
vn 0.000000 0.480585 -0.876948
vn 0.000000 0.480585 -0.876948
vn 0.029324 0.459139 -0.887880
vn 0.474449 0.388915 -0.789711
vn -0.274802 0.332239 -0.902275
vn -0.076200 0.395923 -0.915117
vn -0.053500 0.402046 -0.914055
vn -0.274802 0.332239 -0.902275
vn -0.000000 0.446531 -0.894768
vn -0.000000 0.446531 -0.894768
vn -0.000000 0.446531 -0.894768
vn -0.000000 0.446531 -0.894768
vn 0.000000 0.446531 -0.894768
vn 0.000000 0.446531 -0.894768
vn 0.000000 0.446531 -0.894768
vn 0.000000 0.446531 -0.894768
vn 0.000000 0.446531 -0.894768
vn 0.000000 0.446532 -0.894768
vn 0.076200 0.395922 -0.915117
vn 0.053500 0.402046 -0.914055
vn 0.274802 0.332239 -0.902275
vn 0.274802 0.332239 -0.902275
vn 0.000000 -1.000000 0.000000
vn -0.000000 -1.000000 0.000000
vn 0.000000 -1.000000 -0.000000
vn 0.000000 -1.000000 -0.000000
vn 0.000000 -1.000000 0.000000
vn -0.000000 -1.000000 0.000000
vn -0.000000 -1.000000 0.000000
vn 0.000000 -1.000000 0.000000
vn 0.000000 -1.000000 0.000000
vn 0.000000 -1.000000 0.000000
vn 0.000000 -1.000000 0.000000
vn -0.000000 -1.000000 0.000000
vn 0.000000 -1.000000 0.000000
vn 0.000000 -1.000000 0.000000
vn 0.000000 -1.000000 0.000000
vn -0.000000 -1.000000 0.000000
vn -0.000000 -1.000000 0.000000
vn -0.000000 -1.000000 -0.000000
vn -0.000000 -1.000000 -0.000000
vn 0.000000 -1.000000 -0.000000
vn -0.000000 -1.000000 -0.000000
vn -0.000000 -1.000000 -0.000000
vn 0.000000 -1.000000 -0.000000
vn 0.000000 -1.000000 -0.000000
vn 0.000000 -1.000000 -0.000000
vn 0.000000 -1.000000 -0.000000
vn -0.000000 -1.000000 -0.000000
vn 0.935477 0.353388 0.000000
vn 0.766650 0.289611 -0.573039
vn 0.766650 0.289611 -0.573039
vn 0.935477 0.353388 0.000000
vn 0.766650 0.289611 0.573039
vn 0.766650 0.289611 0.573039
vn -0.766650 0.289611 -0.573039
vn -0.935477 0.353388 0.000000
vn -0.935477 0.353388 0.000000
vn -0.766650 0.289611 -0.573039
vn -0.766650 0.289611 0.573039
vn -0.766650 0.289611 0.573039
s 1
g pCube1
usemtl initialShadingGroup
f 1/1/1 2/2/2 11/11/3 10/10/4
f 2/2/2 3/3/5 12/12/6 11/11/3
f 3/3/5 4/4/7 13/13/8 12/12/6
f 4/4/7 5/5/9 14/14/10 13/13/8
f 5/5/9 6/6/11 15/15/12 14/14/10
f 6/6/11 7/7/13 16/16/14 15/15/12
f 7/7/13 8/8/15 17/17/16 16/16/14
f 8/8/15 9/9/17 18/18/18 17/17/16
s 2
f 10/10/19 11/11/20 20/20/21 19/19/22
f 11/11/20 12/12/23 21/21/24 20/20/21
f 12/12/23 13/13/25 22/22/26 21/21/24
f 13/13/25 14/14/27 23/23/28 22/22/26
f 14/14/27 15/15/29 24/24/30 23/23/28
f 15/15/29 16/16/31 25/25/32 24/24/30
f 16/16/31 17/17/33 26/26/34 25/25/32
f 17/17/33 18/18/35 27/27/36 26/26/34
f 19/19/22 20/20/21 29/29/37 28/28/38
f 20/20/21 21/21/24 30/30/39 29/29/37
f 21/21/24 22/22/26 31/31/40 30/30/39
f 22/22/26 23/23/28 32/32/41 31/31/40
f 23/23/28 24/24/30 33/33/42 32/32/41
f 24/24/30 25/25/32 34/34/43 33/33/42
f 25/25/32 26/26/34 35/35/44 34/34/43
f 26/26/34 27/27/36 36/36/45 35/35/44
s 3
f 28/28/46 29/29/47 38/38/48 37/37/49
f 29/29/47 30/30/50 39/39/51 38/38/48
f 30/30/50 31/31/52 40/40/53 39/39/51
f 31/31/52 32/32/54 41/41/55 40/40/53
f 32/32/54 33/33/56 42/42/57 41/41/55
f 33/33/56 34/34/58 43/43/59 42/42/57
f 34/34/58 35/35/60 44/44/61 43/43/59
f 35/35/60 36/36/62 45/45/63 44/44/61
s 4
f 37/37/64 38/38/65 47/47/66 46/46/67
f 38/38/65 39/39/68 48/48/69 47/47/66
f 39/39/68 40/40/70 49/49/71 48/48/69
f 40/40/70 41/41/72 50/50/73 49/49/71
f 41/41/72 42/42/74 51/51/75 50/50/73
f 42/42/74 43/43/76 52/52/77 51/51/75
f 43/43/76 44/44/78 53/53/79 52/52/77
f 44/44/78 45/45/80 54/54/81 53/53/79
f 46/46/67 47/47/66 2/56/82 1/55/83
f 47/47/66 48/48/69 3/57/84 2/56/82
f 48/48/69 49/49/71 4/58/85 3/57/84
f 49/49/71 50/50/73 5/59/86 4/58/85
f 50/50/73 51/51/75 6/60/87 5/59/86
f 51/51/75 52/52/77 7/61/88 6/60/87
f 52/52/77 53/53/79 8/62/89 7/61/88
f 53/53/79 54/54/81 9/63/90 8/62/89
s 5
f 54/65/91 45/64/92 36/66/93 27/67/94
f 9/9/95 54/65/91 27/67/94 18/18/96
s 6
f 37/68/97 46/69/98 19/71/99 28/70/100
f 46/69/98 1/1/101 10/10/102 19/71/99
